<svg width="59" height="59" viewBox="0 0 59 59" fill="none" xmlns="http://www.w3.org/2000/svg">
<rect width="6.55556" height="6.55556" rx="3.27778" fill="white"/>
<rect y="34.9629" width="6.55556" height="6.55556" rx="3.27778" fill="white"/>
<rect y="17.4814" width="6.55556" height="6.55556" rx="3.27778" fill="white"/>
<rect y="52.4443" width="6.55556" height="6.55556" rx="3.27778" fill="white"/>
<rect x="34.9629" width="6.55556" height="6.55556" rx="3.27778" fill="white"/>
<rect x="34.9629" y="34.9629" width="6.55556" height="6.55556" rx="3.27778" fill="white"/>
<rect x="34.9629" y="17.4814" width="6.55556" height="6.55556" rx="3.27778" fill="white"/>
<rect x="34.9629" y="52.4443" width="6.55556" height="6.55556" rx="3.27778" fill="white"/>
<rect x="17.4819" width="6.55556" height="6.55556" rx="3.27778" fill="white"/>
<rect x="17.4819" y="34.9629" width="6.55556" height="6.55556" rx="3.27778" fill="white"/>
<rect x="17.4819" y="17.4814" width="6.55556" height="6.55556" rx="3.27778" fill="white"/>
<rect x="17.4819" y="52.4443" width="6.55556" height="6.55556" rx="3.27778" fill="white"/>
<rect x="52.4448" width="6.55556" height="6.55556" rx="3.27778" fill="white"/>
<rect x="52.4448" y="34.9629" width="6.55556" height="6.55556" rx="3.27778" fill="white"/>
<rect x="52.4448" y="17.4814" width="6.55556" height="6.55556" rx="3.27778" fill="white"/>
<rect x="52.4448" y="52.4443" width="6.55556" height="6.55556" rx="3.27778" fill="white"/>
</svg>
