<svg width="117" height="21" viewBox="0 0 117 21" fill="none" xmlns="http://www.w3.org/2000/svg">
<path d="M3 17L16.1793 4.64143C16.564 4.2807 17.1627 4.2807 17.5474 4.64143L30.0426 16.3586C30.4273 16.7193 31.026 16.7193 31.4107 16.3586L43.9059 4.64143C44.2906 4.2807 44.8893 4.2807 45.274 4.64143L57.7693 16.3586C58.1539 16.7193 58.7526 16.7193 59.1373 16.3586L71.6326 4.64143C72.0173 4.2807 72.616 4.2807 73.0006 4.64143L85.4971 16.3596C85.8813 16.7199 86.4791 16.7204 86.8639 16.3608L99.4072 4.63813C99.7915 4.27894 100.388 4.27894 100.773 4.63813L114 17" stroke="#69BC00" stroke-width="7"/>
</svg>
