<?xml version="1.0" standalone="no"?>
<!DOCTYPE svg PUBLIC "-//W3C//DTD SVG 20010904//EN"
 "http://www.w3.org/TR/2001/REC-SVG-20010904/DTD/svg10.dtd">
<svg version="1.0" xmlns="http://www.w3.org/2000/svg"
 width="209.000000pt" height="209.000000pt" viewBox="0 0 209.000000 209.000000"
 preserveAspectRatio="xMidYMid meet">
<metadata>
Created by potrace 1.14, written by Peter Selinger 2001-2017
</metadata>
<g transform="translate(0.000000,209.000000) scale(0.100000,-0.100000)"
fill="#000000" stroke="none">
<path d="M838 2074 c-148 -27 -313 -100 -433 -192 -113 -86 -195 -181 -290
-337 -25 -42 -77 -192 -95 -274 -23 -111 -21 -370 4 -474 87 -355 328 -623
666 -741 112 -39 210 -54 355 -54 237 0 409 51 597 174 196 130 348 346 414
589 25 89 28 118 28 265 1 189 -5 231 -45 353 -80 242 -231 432 -449 564 -71
43 -199 96 -276 114 -27 6 -58 13 -69 16 -50 12 -334 11 -407 -3z m412 -359
c234 -73 411 -251 467 -470 18 -73 22 -114 19 -225 -2 -103 -8 -140 -30 -206
-67 -207 -243 -376 -456 -440 -64 -19 -283 -28 -345 -14 -162 36 -245 80 -355
190 -97 97 -146 182 -180 316 -25 95 -26 250 -2 352 57 252 254 447 512 507
78 18 299 13 370 -10z"/>
</g>
</svg>
