<svg width="139" height="51" viewBox="0 0 139 51" fill="none" xmlns="http://www.w3.org/2000/svg">
<rect x="4.5" y="5.5" width="41" height="41" rx="20.5" stroke="#69BC00" stroke-width="9"/>
<path d="M62.49 29V8H71.58C73.46 8 75.08 8.31 76.44 8.93C77.8 9.53 78.85 10.4 79.59 11.54C80.33 12.68 80.7 14.04 80.7 15.62C80.7 17.18 80.33 18.53 79.59 19.67C78.85 20.79 77.8 21.65 76.44 22.25C75.08 22.85 73.46 23.15 71.58 23.15H65.19L67.35 21.02V29H62.49ZM75.84 29L70.59 21.38H75.78L81.09 29H75.84ZM67.35 21.56L65.19 19.28H71.31C72.81 19.28 73.93 18.96 74.67 18.32C75.41 17.66 75.78 16.76 75.78 15.62C75.78 14.46 75.41 13.56 74.67 12.92C73.93 12.28 72.81 11.96 71.31 11.96H65.19L67.35 9.65V21.56ZM81.7905 29L91.1505 8H95.9505L105.341 29H100.241L92.5605 10.46H94.4805L86.7705 29H81.7905ZM86.4705 24.5L87.7605 20.81H98.5605L99.8805 24.5H86.4705ZM111.417 29L104.547 8H109.587L115.557 26.6H113.037L119.277 8H123.777L129.777 26.6H127.347L133.467 8H138.117L131.247 29H126.027L120.717 12.68H122.097L116.637 29H111.417Z" fill="white"/>
<path d="M64.712 39.312H70.104V41.328H64.712V39.312ZM64.904 43.92H71V46H62.328V34.8H70.792V36.88H64.904V43.92ZM71.673 46L76.489 39.36V41.248L71.881 34.8H74.825L78.009 39.296L76.777 39.312L79.913 34.8H82.729L78.153 41.136V39.28L83.001 46H80.009L76.713 41.248H77.897L74.649 46H71.673ZM84.0155 46V34.8H88.8635C89.8662 34.8 90.7302 34.9653 91.4555 35.296C92.1808 35.616 92.7408 36.08 93.1355 36.688C93.5302 37.296 93.7275 38.0213 93.7275 38.864C93.7275 39.696 93.5302 40.416 93.1355 41.024C92.7408 41.632 92.1808 42.1013 91.4555 42.432C90.7302 42.752 89.8662 42.912 88.8635 42.912H85.4555L86.6075 41.744V46H84.0155ZM86.6075 42.032L85.4555 40.8H88.7195C89.5195 40.8 90.1168 40.6293 90.5115 40.288C90.9062 39.9467 91.1035 39.472 91.1035 38.864C91.1035 38.2453 90.9062 37.7653 90.5115 37.424C90.1168 37.0827 89.5195 36.912 88.7195 36.912H85.4555L86.6075 35.68V42.032ZM95.578 46V34.8H100.426C101.429 34.8 102.293 34.9653 103.018 35.296C103.743 35.616 104.303 36.08 104.698 36.688C105.093 37.296 105.29 38.0213 105.29 38.864C105.29 39.696 105.093 40.416 104.698 41.024C104.303 41.6213 103.743 42.08 103.018 42.4C102.293 42.72 101.429 42.88 100.426 42.88H97.018L98.17 41.744V46H95.578ZM102.698 46L99.898 41.936H102.666L105.498 46H102.698ZM98.17 42.032L97.018 40.816H100.282C101.082 40.816 101.679 40.6453 102.074 40.304C102.469 39.952 102.666 39.472 102.666 38.864C102.666 38.2453 102.469 37.7653 102.074 37.424C101.679 37.0827 101.082 36.912 100.282 36.912H97.018L98.17 35.68V42.032ZM109.728 39.312H115.12V41.328H109.728V39.312ZM109.92 43.92H116.016V46H107.344V34.8H115.808V36.88H109.92V43.92ZM121.758 46.192C120.862 46.192 120.003 46.0747 119.182 45.84C118.361 45.5947 117.699 45.28 117.198 44.896L118.078 42.944C118.558 43.2853 119.123 43.568 119.774 43.792C120.435 44.0053 121.102 44.112 121.774 44.112C122.286 44.112 122.697 44.064 123.006 43.968C123.326 43.8613 123.561 43.7173 123.71 43.536C123.859 43.3547 123.934 43.1467 123.934 42.912C123.934 42.6133 123.817 42.3787 123.582 42.208C123.347 42.0267 123.038 41.8827 122.654 41.776C122.27 41.6587 121.843 41.552 121.374 41.456C120.915 41.3493 120.451 41.2213 119.982 41.072C119.523 40.9227 119.102 40.7307 118.718 40.496C118.334 40.2613 118.019 39.952 117.774 39.568C117.539 39.184 117.422 38.6933 117.422 38.096C117.422 37.456 117.593 36.8747 117.934 36.352C118.286 35.8187 118.809 35.3973 119.502 35.088C120.206 34.768 121.086 34.608 122.142 34.608C122.846 34.608 123.539 34.6933 124.222 34.864C124.905 35.024 125.507 35.2693 126.03 35.6L125.23 37.568C124.707 37.2693 124.185 37.0507 123.662 36.912C123.139 36.7627 122.627 36.688 122.126 36.688C121.625 36.688 121.214 36.7467 120.894 36.864C120.574 36.9813 120.345 37.136 120.206 37.328C120.067 37.5093 119.998 37.7227 119.998 37.968C119.998 38.256 120.115 38.4907 120.35 38.672C120.585 38.8427 120.894 38.9813 121.278 39.088C121.662 39.1947 122.083 39.3013 122.542 39.408C123.011 39.5147 123.475 39.6373 123.934 39.776C124.403 39.9147 124.83 40.1013 125.214 40.336C125.598 40.5707 125.907 40.88 126.142 41.264C126.387 41.648 126.51 42.1333 126.51 42.72C126.51 43.3493 126.334 43.9253 125.982 44.448C125.63 44.9707 125.102 45.392 124.398 45.712C123.705 46.032 122.825 46.192 121.758 46.192ZM131.961 46.192C131.065 46.192 130.206 46.0747 129.385 45.84C128.564 45.5947 127.902 45.28 127.401 44.896L128.281 42.944C128.761 43.2853 129.326 43.568 129.977 43.792C130.638 44.0053 131.305 44.112 131.977 44.112C132.489 44.112 132.9 44.064 133.209 43.968C133.529 43.8613 133.764 43.7173 133.913 43.536C134.062 43.3547 134.137 43.1467 134.137 42.912C134.137 42.6133 134.02 42.3787 133.785 42.208C133.55 42.0267 133.241 41.8827 132.857 41.776C132.473 41.6587 132.046 41.552 131.577 41.456C131.118 41.3493 130.654 41.2213 130.185 41.072C129.726 40.9227 129.305 40.7307 128.921 40.496C128.537 40.2613 128.222 39.952 127.977 39.568C127.742 39.184 127.625 38.6933 127.625 38.096C127.625 37.456 127.796 36.8747 128.137 36.352C128.489 35.8187 129.012 35.3973 129.705 35.088C130.409 34.768 131.289 34.608 132.345 34.608C133.049 34.608 133.742 34.6933 134.425 34.864C135.108 35.024 135.71 35.2693 136.233 35.6L135.433 37.568C134.91 37.2693 134.388 37.0507 133.865 36.912C133.342 36.7627 132.83 36.688 132.329 36.688C131.828 36.688 131.417 36.7467 131.097 36.864C130.777 36.9813 130.548 37.136 130.409 37.328C130.27 37.5093 130.201 37.7227 130.201 37.968C130.201 38.256 130.318 38.4907 130.553 38.672C130.788 38.8427 131.097 38.9813 131.481 39.088C131.865 39.1947 132.286 39.3013 132.745 39.408C133.214 39.5147 133.678 39.6373 134.137 39.776C134.606 39.9147 135.033 40.1013 135.417 40.336C135.801 40.5707 136.11 40.88 136.345 41.264C136.59 41.648 136.713 42.1333 136.713 42.72C136.713 43.3493 136.537 43.9253 136.185 44.448C135.833 44.9707 135.305 45.392 134.601 45.712C133.908 46.032 133.028 46.192 131.961 46.192Z" fill="#69BC00"/>
</svg>
